<?xml version="1.0" encoding="UTF-8"?>
<svg version="1.1" xmlns="http://www.w3.org/2000/svg" viewBox="210 355 775 390" width="775" height="390">
<path d="M0 0 C396 0 792 0 1200 0 C1200 396 1200 792 1200 1200 C804 1200 408 1200 0 1200 C0 804 0 408 0 0 Z " fill="#FEFEFE" transform="translate(0,0)"/>
<path d="M0 0 C139.67594108 0 139.67594108 0 154.82421875 14.76171875 C155.54222656 15.50035156 156.26023437 16.23898437 157 17 C157.56332031 17.54269531 158.12664062 18.08539063 158.70703125 18.64453125 C179.27711869 40.08301288 177.82241408 78.73593089 177.28515625 106.3359375 C176.70843651 126.02162641 174.06336996 147.5236498 159.83203125 162.2421875 C154.88647303 166.88982053 149.10746227 172 142 172 C142 172.66 142 173.32 142 174 C142.99 174.061875 143.98 174.12375 145 174.1875 C152.75747424 175.30244063 158.92212883 180.93367412 163.49609375 186.9765625 C172.85011701 200.9259538 172.57108824 217.06997893 172.42578125 233.1875 C172.4208315 235.33650403 172.41754955 237.48551245 172.41581726 239.63452148 C172.40627616 245.28456454 172.37200235 250.93420133 172.33294678 256.58410645 C172.30619 261.054165 172.29722163 265.52416763 172.28926277 269.99429321 C172.23371411 300.34061105 171.70461102 330.66162635 171 361 C147.9 361 124.8 361 101 361 C100.96261719 350.336875 100.92523438 339.67375 100.88671875 328.6875 C100.85644409 321.93358073 100.82542122 315.17967865 100.79101562 308.42578125 C100.73654095 297.7049312 100.68512746 286.98412886 100.65356445 276.26318359 C100.63056246 268.45492022 100.59713985 260.64678219 100.55129844 252.83861828 C100.52739587 248.7057377 100.50864769 244.57298104 100.50238609 240.44003296 C100.49632177 236.54610266 100.47627361 232.65248931 100.44572449 228.75867653 C100.43696578 227.3333335 100.43321718 225.90794902 100.43499184 224.48258018 C100.51168172 213.84068311 100.51168172 213.84068311 97 204 C89.94754333 197.26695468 89.94754333 197.26695468 73 196 C73 250.78 73 305.56 73 362 C48.91 362 24.82 362 0 362 C0 242.54 0 123.08 0 0 Z " fill="#010101" transform="translate(225,370)"/>
<path d="M0 0 C40.59 0 81.18 0 123 0 C123.99 11.22 124.98 22.44 126 34 C126.62898351 40.82954185 127.26221113 47.6583658 127.91015625 54.48608398 C128.08022622 56.2868601 128.25020462 58.08764487 128.42010212 59.88843727 C128.87225849 64.67812816 129.32570427 69.46769609 129.77945924 74.25723577 C130.26670079 79.40241619 130.75279137 84.5477054 131.23905945 89.69297791 C132.06557329 98.43664359 132.89292033 107.18023012 133.72079468 115.92376709 C134.5769453 124.96604768 135.43227702 134.00840525 136.28677368 143.05084229 C142.34528017 207.17870354 142.34528017 207.17870354 148.4929862 271.29805779 C148.76360397 274.10030207 149.03383738 276.90258334 149.30404007 279.70486766 C150.43728214 291.45749299 151.57232301 303.20991976 152.7225523 314.96089649 C153.1430587 319.26636216 153.5595044 323.57221365 153.97489357 327.87817574 C154.16170477 329.80458621 154.35035159 331.73081985 154.5411129 333.65684319 C154.79611667 336.23221523 155.04468225 338.80813346 155.29174805 341.38427734 C155.36480164 342.10476478 155.43785522 342.82525221 155.51312256 343.56757259 C156.06653307 349.45275063 156 355.00434932 156 361 C133.56 361 111.12 361 88 361 C87.175 352.1725 86.35 343.345 85.5 334.25 C85.23896484 331.46723633 84.97792969 328.68447266 84.70898438 325.81738281 C84.50376021 323.6126438 84.29867273 321.40789205 84.09375 319.203125 C83.98579102 318.05763184 83.87783203 316.91213867 83.76660156 315.73193359 C83.61433105 314.08813721 83.61433105 314.08813721 83.45898438 312.41113281 C83.37015991 311.46071106 83.28133545 310.51028931 83.18981934 309.53106689 C83.02694031 307.35922436 83 305.17794159 83 303 C68.48 303 53.96 303 39 303 C38.87625 306.17625 38.7525 309.3525 38.625 312.625 C38.21273806 322.46684335 37.64327897 332.29604487 37 342.125 C36.9170166 343.42260254 36.8340332 344.72020508 36.74853516 346.05712891 C36.66651855 347.27835449 36.58450195 348.49958008 36.5 349.7578125 C36.39171875 351.38420654 36.39171875 351.38420654 36.28125 353.04345703 C36 356 36 356 35 361 C11.9 361 -11.2 361 -35 361 C-32.82708392 335.31815082 -30.52532692 309.65747779 -28.00390625 284.0078125 C-27.93671505 283.32414454 -27.86952384 282.64047659 -27.80029655 281.93609142 C-27.02149221 274.01460383 -26.23958957 266.09342346 -25.45645142 258.17236328 C-23.98629738 243.30241595 -22.52589268 228.43150864 -21.06640029 213.56051159 C-20.90743002 211.94082213 -20.74843229 210.32113538 -20.58940721 208.7014513 C-16.93428271 171.47363048 -13.36188678 134.23803346 -9.8125 97 C-9.74350951 96.27624333 -9.67451901 95.55248667 -9.6034379 94.80679798 C-8.80373624 86.41723889 -8.00444299 78.02764095 -7.20541149 69.63801801 C-6.77793974 65.14992102 -6.35017457 60.66185207 -5.92225647 56.17379761 C-5.80755414 54.97070387 -5.69285181 53.76761013 -5.57467365 52.52805901 C-5.35272456 50.20010111 -5.13075496 47.87214516 -4.90876293 45.54419136 C-4.3492037 39.67376002 -3.79174781 33.80313844 -3.23764133 27.93218994 C-2.9551316 24.94265062 -2.67074498 21.95329238 -2.38574791 18.96398926 C-2.20805388 17.09302624 -2.03301175 15.22181191 -1.85810852 13.35058594 C-1.75628769 12.28614258 -1.65446686 11.22169922 -1.54956055 10.125 C-1.46610886 9.24070312 -1.38265717 8.35640625 -1.29667664 7.4453125 C-0.99326924 4.94452276 -0.49404163 2.47020814 0 0 Z " fill="#000000" transform="translate(451,370)"/>
<path d="M0 0 C18.35340575 17.44263523 26.85894989 44.36406755 27.515625 69.296875 C27.52738284 70.85413589 27.5338585 72.41144527 27.53515625 73.96875 C27.54740234 74.75765625 27.55964844 75.5465625 27.57226562 76.359375 C27.5919808 84.14029848 27.5919808 84.14029848 25.34765625 86.71875 C22.4765625 87.95703125 22.4765625 87.95703125 18.91015625 89.03125 C8.86339646 92.30638236 0.20460146 97.54647882 -6.65234375 105.71875 C-6.98234375 106.37875 -7.31234375 107.03875 -7.65234375 107.71875 C-18.87234375 107.71875 -30.09234375 107.71875 -41.65234375 107.71875 C-41.678125 104.65851563 -41.70390625 101.59828125 -41.73046875 98.4453125 C-41.76897581 95.45319763 -41.8141081 92.46125007 -41.85986328 89.46923828 C-41.88793913 87.4035655 -41.90921966 85.33778797 -41.92333984 83.27197266 C-41.94495568 80.28754557 -41.99169999 77.30436046 -42.04296875 74.3203125 C-42.04419739 73.40947906 -42.04542603 72.49864563 -42.04669189 71.56021118 C-42.20277221 64.59343318 -43.4852029 57.48451454 -48.09918213 51.9984436 C-52.53282433 48.34544092 -59.27066745 49.22380309 -64.65234375 49.71875 C-70.01918967 51.38399475 -73.06180379 54.82550785 -75.65234375 59.71875 C-77.38689805 64.80601118 -77.93939522 69.44252033 -77.90631104 74.77557373 C-77.90943102 75.55783553 -77.912551 76.34009734 -77.91576552 77.14606404 C-77.92370558 79.75207641 -77.91743744 82.35785333 -77.91113281 84.96386719 C-77.91384454 86.83865495 -77.91740649 88.71344164 -77.92175293 90.58822632 C-77.93086011 95.67105955 -77.92733887 100.75381145 -77.92099476 105.83664608 C-77.91592315 111.1646388 -77.92062972 116.49262467 -77.92376709 121.82061768 C-77.92740461 130.7717005 -77.92261456 139.72275031 -77.91308594 148.67382812 C-77.90221511 159.00467544 -77.90571786 169.33544371 -77.91673875 179.66628909 C-77.92583361 188.54891342 -77.92708576 197.43151403 -77.92186141 206.31414151 C-77.91875208 211.61346051 -77.91830352 216.91274245 -77.92493439 222.21205902 C-77.93073875 227.19925735 -77.92665465 232.18635454 -77.91514587 237.17354202 C-77.91251519 238.99756579 -77.91323697 240.82159816 -77.9176712 242.64561844 C-78.35911818 261.02736428 -78.35911818 261.02736428 -71.65234375 277.71875 C-67.90826863 281.46282512 -64.77505028 282.01587053 -59.65234375 282.21875 C-54.52963722 282.01587053 -51.39641887 281.46282512 -47.65234375 277.71875 C-40.92872528 268.19362384 -41.34089826 255.67432186 -41.23828125 244.51953125 C-41.2189151 243.20333298 -41.19954895 241.8871347 -41.17959595 240.53105164 C-41.12878328 237.070676 -41.08888941 233.61026197 -41.05145264 230.14971924 C-41.01108951 226.60297552 -40.96014652 223.0563844 -40.91015625 219.50976562 C-40.81400136 212.57953327 -40.73038875 205.64920976 -40.65234375 198.71875 C-46.92234375 198.71875 -53.19234375 198.71875 -59.65234375 198.71875 C-59.65234375 177.92875 -59.65234375 157.13875 -59.65234375 135.71875 C-46.78234375 135.71875 -33.91234375 135.71875 -20.65234375 135.71875 C-20.32234375 140.99875 -19.99234375 146.27875 -19.65234375 151.71875 C-15.70716865 168.81450879 -8.31406039 182.47266688 6.78515625 192.15625 C13.67912187 196.13291102 20.64748801 198.79370794 28.34765625 200.71875 C28.34765625 248.56875 28.34765625 296.41875 28.34765625 345.71875 C18.77765625 345.71875 9.20765625 345.71875 -0.65234375 345.71875 C-5.15234375 336.71875 -5.15234375 336.71875 -6.79296875 332.5625 C-7.14101563 331.6859375 -7.4890625 330.809375 -7.84765625 329.90625 C-8.19570313 329.019375 -8.54375 328.1325 -8.90234375 327.21875 C-9.26585937 326.3009375 -9.629375 325.383125 -10.00390625 324.4375 C-10.88991708 322.19915685 -11.77265632 319.95958407 -12.65234375 317.71875 C-13.20664062 318.42257812 -13.7609375 319.12640625 -14.33203125 319.8515625 C-26.95283082 335.44696129 -41.06660644 346.99077258 -61.65234375 349.71875 C-82.12669655 351.33480875 -103.3495386 348.59712786 -119.484375 334.86010742 C-140.2145265 316.16689011 -148.24632339 287.59473549 -149.78153372 260.43305922 C-150.32714225 247.32125553 -150.19951407 234.18250153 -150.1567142 221.06250167 C-150.14266229 215.67076081 -150.14934593 210.27903598 -150.15284729 204.88728333 C-150.15553259 195.84610557 -150.14221583 186.80506185 -150.11889648 177.76391602 C-150.09225713 167.36466779 -150.09055888 156.96564279 -150.10228485 146.5663721 C-150.11312226 136.48511522 -150.10683161 126.40393776 -150.09272957 116.32268715 C-150.08702529 112.06604407 -150.08700791 107.80946019 -150.09179497 103.55281639 C-150.09662325 98.53000039 -150.08622529 93.50742403 -150.06484032 88.48465347 C-150.05935243 86.65956365 -150.05873174 84.83445041 -150.06379318 83.00935936 C-150.13564235 53.34721689 -144.75242026 24.70892717 -123.640625 2.61328125 C-93.51169322 -26.17906206 -31.4551418 -27.05420149 0 0 Z " fill="#000000" transform="translate(776.65234375,385.28125)"/>
<path d="M0 0 C47.52 0 95.04 0 144 0 C144 22.77 144 45.54 144 69 C120.57 69 97.14 69 73 69 C73 92.1 73 115.2 73 139 C95.44 139 117.88 139 141 139 C141 161.44 141 183.88 141 207 C118.56 207 96.12 207 73 207 C73 234.39 73 261.78 73 290 C98.08 290 123.16 290 149 290 C149 313.1 149 336.2 149 360 C99.83 360 50.66 360 0 360 C0 311.16 0 262.32 0 212 C3.96 210.02 7.92 208.04 12 206 C24.77945374 197.02395511 33.82192315 184.33416633 37.375 168.9375 C39.95128091 152.44399026 36.45744862 136.77187024 26.9609375 123.0546875 C19.34398756 113.17687609 11.13964918 108.56982459 0 103 C0 69.01 0 35.02 0 0 Z " fill="#000000" transform="translate(834,371)"/>
<path d="M0 0 C47.85 0 95.7 0 145 0 C145 0.33 145 0.66 145 1 C97.48 1 49.96 1 1 1 C1 34.99 1 68.98 1 104 C3.97 104.99 3.97 104.99 7 106 C21.07315422 113.12481005 31.28520827 124.22108805 37 139 C42.34469417 157.24493993 40.12957722 172.68783776 31.2265625 189.2265625 C24.46299531 201.09091264 14.07809713 209.26340082 1 213 C1 261.84 1 310.68 1 361 C0.67 361 0.34 361 0 361 C0 312.49 0 263.98 0 214 C-3.3 214.99 -6.6 215.98 -10 217 C-12.91460585 217.26952837 -15.54369891 217.43462736 -18.4375 217.375 C-19.17266846 217.36412354 -19.90783691 217.35324707 -20.6652832 217.34204102 C-36.2856 216.88791222 -50.44257054 209.85609003 -61.375 198.8828125 C-74.24032774 184.75392579 -77 169.78641169 -77 151 C-89.87 151 -102.74 151 -116 151 C-116 171.79 -116 192.58 -116 214 C-109.73 214 -103.46 214 -97 214 C-96.93171668 221.58119949 -96.87689513 229.16228122 -96.84456348 236.74371529 C-96.82903129 240.26562216 -96.80802686 243.78730439 -96.77368164 247.30908203 C-96.73428311 251.37534509 -96.72018825 255.44137916 -96.70703125 259.5078125 C-96.69154739 260.74798126 -96.67606354 261.98815002 -96.66011047 263.26589966 C-96.658199 273.39033342 -96.77045393 286.15077856 -104 294 C-107.81930172 297.62833663 -110.88279006 298.31000458 -116 298.5 C-121.11720994 298.31000458 -124.18069828 297.62833663 -128 294 C-134.59324313 285.57530045 -135.15291371 276.13861438 -135.14044189 265.8094635 C-135.14341302 265.02493614 -135.14638414 264.24040878 -135.1494453 263.43210787 C-135.15806071 260.82460055 -135.1596344 258.21713952 -135.16113281 255.60961914 C-135.16576589 253.73143925 -135.17079121 251.85326028 -135.17617798 249.9750824 C-135.18925273 244.88833755 -135.19573674 239.80160586 -135.20018864 234.71484685 C-135.20312601 231.53405727 -135.20723196 228.35327123 -135.21169281 225.17248344 C-135.22535185 215.21191681 -135.23502753 205.25135834 -135.2388947 195.29078299 C-135.24337823 183.80760849 -135.26094652 172.32455287 -135.2898953 160.84141451 C-135.31152308 151.95286093 -135.32159949 143.06434078 -135.32293582 134.17576116 C-135.32398262 128.87201605 -135.32986454 123.56838293 -135.34775543 118.2646656 C-135.3642561 113.27661736 -135.3663819 108.28876508 -135.35761642 103.30069923 C-135.35684725 101.47421493 -135.36117296 99.64771999 -135.37107468 97.82126236 C-135.47557736 77.33786673 -135.47557736 77.33786673 -129.6875 69.625 C-124.08344878 64.15127555 -119.48407015 63.66010865 -111.90234375 63.6015625 C-107.24369728 64.24110751 -104.06905875 66.53481568 -101 70 C-97.87627065 76.29604091 -97.59038588 82.60339349 -97.70703125 89.50390625 C-97.71127609 90.4677977 -97.71552094 91.43168915 -97.71989441 92.42478943 C-97.73654319 95.47099015 -97.77416889 98.51650288 -97.8125 101.5625 C-97.8275647 103.64126641 -97.84124996 105.72004331 -97.85351562 107.79882812 C-97.8838359 112.86635679 -97.942583 117.93241811 -98 123 C-86.78 123 -75.56 123 -64 123 C-63.01 121.02 -63.01 121.02 -62 119 C-53.66276365 109.68089904 -42.97995033 104.15101616 -31 101 C-30.34 96.71 -29.68 92.42 -29 88 C-28.67 88 -28.34 88 -28 88 C-27.67 89.98 -27.34 91.96 -27 94 C-26.34 93.34 -25.68 92.68 -25 92 C-23.68 92 -22.36 92 -21 92 C-21 79.79 -21 67.58 -21 55 C-19.68 54.67 -18.36 54.34 -17 54 C-15.22489012 55.77510988 -15.89007057 58.13718874 -15.88813782 60.49946594 C-15.89024765 61.26921249 -15.89235748 62.03895905 -15.89453125 62.83203125 C-15.88107304 64.45118518 -15.86604949 66.07032672 -15.84960938 67.68945312 C-15.8267771 70.2508415 -15.81249191 72.81083767 -15.82495117 75.37231445 C-15.83376529 77.83907697 -15.80487359 80.30305663 -15.76953125 82.76953125 C-15.78176224 83.53320511 -15.79399323 84.29687897 -15.80659485 85.08369446 C-15.81441667 87.53823529 -15.81441667 87.53823529 -15 91 C-12.1672592 93.39298894 -12.1672592 93.39298894 -9 95 C-7 98 -7 98 -7 102 C-4.69 102.33 -2.38 102.66 0 103 C0 69.01 0 35.02 0 0 Z " fill="#63F00C" transform="translate(833,370)"/>
<path d="M0 0 C5.2316928 3.7583493 6.89512084 7.44349035 8.31640625 13.6640625 C8.67658308 17.17646163 8.66900827 20.64018115 8.609375 24.16796875 C8.60513016 25.1318602 8.60088531 26.09575165 8.59651184 27.08885193 C8.57986306 30.13505265 8.54223736 33.18056538 8.50390625 36.2265625 C8.48884155 38.30532891 8.47515629 40.38410581 8.46289062 42.46289062 C8.43257035 47.53041929 8.37382325 52.59648061 8.31640625 57.6640625 C19.20640625 57.6640625 30.09640625 57.6640625 41.31640625 57.6640625 C37.50390625 64.3515625 37.50390625 64.3515625 36.32104492 66.3659668 C32.7183822 72.91185587 32.15178076 77.71077294 30.31640625 85.6640625 C17.11640625 85.6640625 3.91640625 85.6640625 -9.68359375 85.6640625 C-9.68359375 106.4540625 -9.68359375 127.2440625 -9.68359375 148.6640625 C-3.41359375 148.6640625 2.85640625 148.6640625 9.31640625 148.6640625 C9.38468957 156.24526199 9.43951112 163.82634372 9.47184277 171.40777779 C9.48737496 174.92968466 9.50837939 178.45136689 9.54272461 181.97314453 C9.58212314 186.03940759 9.596218 190.10544166 9.609375 194.171875 C9.62485886 195.41204376 9.64034271 196.65221252 9.65629578 197.92996216 C9.65820725 208.05439592 9.54595232 220.81484106 2.31640625 228.6640625 C-1.50289547 232.29239913 -4.56638381 232.97406708 -9.68359375 233.1640625 C-14.80080369 232.97406708 -17.86429203 232.29239913 -21.68359375 228.6640625 C-28.27683688 220.23936295 -28.83650746 210.80267688 -28.82403564 200.473526 C-28.82700677 199.68899864 -28.82997789 198.90447128 -28.83303905 198.09617037 C-28.84165446 195.48866305 -28.84322815 192.88120202 -28.84472656 190.27368164 C-28.84935964 188.39550175 -28.85438496 186.51732278 -28.85977173 184.6391449 C-28.87284648 179.55240005 -28.87933049 174.46566836 -28.88378239 169.37890935 C-28.88671976 166.19811977 -28.89082571 163.01733373 -28.89528656 159.83654594 C-28.9089456 149.87597931 -28.91862128 139.91542084 -28.92248845 129.95484549 C-28.92697198 118.47167099 -28.94454027 106.98861537 -28.97348905 95.50547701 C-28.99511683 86.61692343 -29.00519324 77.72840328 -29.00652957 68.83982366 C-29.00757637 63.53607855 -29.01345829 58.23244543 -29.03134918 52.9287281 C-29.04784985 47.94067986 -29.04997565 42.95282758 -29.04121017 37.96476173 C-29.040441 36.13827743 -29.04476671 34.31178249 -29.05466843 32.48532486 C-29.15917111 12.00192923 -29.15917111 12.00192923 -23.37109375 4.2890625 C-17.19383583 -1.74453825 -8.05457046 -4.00969883 0 0 Z " fill="#FCFCFC" transform="translate(726.68359375,435.3359375)"/>
<path d="M0 0 C1.32 0 2.64 0 4 0 C6.46956616 21.6138849 8.36290459 43.25876434 10.15281296 64.9376564 C10.75933813 72.27355462 11.37237041 79.60891465 11.9844265 86.9443531 C12.13788384 88.78429023 12.29119555 90.62423951 12.44436073 92.46420097 C13.39589149 103.89329305 14.36796743 115.32020525 15.38183594 126.74394226 C15.56380159 128.79486181 15.74502747 130.84584542 15.92602539 132.89685059 C16.58834906 140.3974987 16.58834906 140.3974987 17.26312256 147.89703369 C17.56481261 151.21866868 17.85921679 154.54088136 18.15234375 157.86328125 C18.23948135 158.79613449 18.32661896 159.72898773 18.41639709 160.69010925 C19.06958872 168.20978381 19 175.36024748 19 183 C8.44 183 -2.12 183 -13 183 C-11.56154437 153.0409608 -9.48453133 123.1617677 -7.21246338 93.25592041 C-6.8410459 88.35131348 -6.47435793 83.44635744 -6.10771847 78.54139137 C-5.75160286 73.78174667 -5.3933906 69.02226172 -5.03445625 64.26282883 C-4.86455871 62.00869584 -4.69512053 59.75452818 -4.52616692 57.50032425 C-4.29151333 54.37587349 -4.05422371 51.25163411 -3.81616211 48.12744141 C-3.74809357 47.2153743 -3.68002502 46.30330719 -3.6098938 45.36360168 C-3.21444535 40.21659823 -2.66558954 35.11892706 -2 30 C-1.80151791 27.55363081 -1.62320326 25.1055437 -1.46484375 22.65625 C-1.42186661 22.00168823 -1.37888947 21.34712646 -1.33460999 20.67272949 C-1.20002566 18.61528983 -1.06870106 16.55765789 -0.9375 14.5 C-0.84592032 13.0911317 -0.75412525 11.68227738 -0.66210938 10.2734375 C-0.43892159 6.84911607 -0.21865335 3.42461431 0 0 Z " fill="#F9F9F9" transform="translate(509,432)"/>
<path d="M0 0 C20 0 20 0 28 4 C32.78617825 11.2564638 32.18631191 19.25399879 32.18530273 27.64526367 C32.18747484 29.66411895 32.20561801 31.68241408 32.22460938 33.70117188 C32.23953914 43.72899609 32.12682502 54.52239922 26 63 C21 67 21 67 0 67 C0 44.89 0 22.78 0 0 Z " fill="#FDFDFD" transform="translate(299,437)"/>
<path d="M0 0 C2.48063134 2.22062182 3.61827339 4.21948747 4.9375 7.25 C8.20798589 13.45579776 13.91155495 15.98005357 20 19 C10.89398281 26 10.89398281 26 7 26 C6.7525 26.845625 6.505 27.69125 6.25 28.5625 C4.86026373 32.38427474 3.08879162 35.51868063 1 39 C-6 30.25 -6 30.25 -6 26 C-6.845625 25.7525 -7.69125 25.505 -8.5625 25.25 C-12.38427474 23.86026373 -15.51868063 22.08879162 -19 20 C-16.77937818 17.51936866 -14.78051253 16.38172661 -11.75 15.0625 C-5.54420224 11.79201411 -3.01994643 6.08844505 0 0 Z " fill="#5DF400" transform="translate(874,463)"/>
<path d="M0 0 C7.59 0 15.18 0 23 0 C23 7.59 23 15.18 23 23 C16.07 23 9.14 23 2 23 C2 16.73 2 10.46 2 4 C1.34 4 0.68 4 0 4 C0 2.68 0 1.36 0 0 Z " fill="#FFFFFF" transform="translate(803,517)"/>
<path d="M0 0 C2.63409709 0.95120173 4.72991235 1.77399691 6.890625 3.58203125 C9.82124766 5.55206092 12.25343223 5.51267161 15.75 5.6875 C16.92046875 5.75324219 18.0909375 5.81898438 19.296875 5.88671875 C20.18890625 5.92410156 21.0809375 5.96148438 22 6 C20.81769953 8.50244764 19.72094994 10.3382425 17.9375 12.5 C14.79527549 17.00891695 15.171714 22.69403748 15 28 C12.49755236 26.81769953 10.6617575 25.72094994 8.5 23.9375 C3.99108305 20.79527549 -1.69403748 21.171714 -7 21 C-6.57847656 20.48953125 -6.15695312 19.9790625 -5.72265625 19.453125 C-0.94482345 13.11265983 -0.02658891 7.85702259 0 0 Z " fill="#5CF300" transform="translate(867,561)"/>
<path d="M0 0 C2.39295489 2.22202954 4.09347238 4.16023837 5.75 7 C8.6147405 10.819654 11.66488946 12.2112408 16 14 C15.67 14.99 15.34 15.98 15 17 C13.36328125 17.81640625 13.36328125 17.81640625 11.3125 18.5625 C5.77565163 21.08650475 3.64465035 25.75076977 1 31 C-1.01940705 28.5627846 -2.82468351 26.36908735 -4.1875 23.5 C-6.94843425 19.69181483 -10.8423241 18.04833089 -15 16 C-12.68473201 13.32853694 -11.31217048 12.09365114 -7.875 11.0625 C-4.82695635 10.30423714 -4.82695635 10.30423714 -3.8125 7.6875 C-3.544375 6.800625 -3.27625 5.91375 -3 5 C-2.02763513 3.3170608 -1.03435556 1.64556566 0 0 Z " fill="#5DF400" transform="translate(750,431)"/>
<path d="M0 0 C1.58206057 0.00667536 3.16410534 0.0186375 4.74609375 0.03515625 C5.55240234 0.03966797 6.35871094 0.04417969 7.18945312 0.04882812 C9.18753131 0.06065107 11.18557158 0.07858711 13.18359375 0.09765625 C15.87157071 5.80167036 15.32038811 10.873513 15.18359375 17.09765625 C7.92359375 17.09765625 0.66359375 17.09765625 -6.81640625 17.09765625 C-6.50703125 14.47828125 -6.19765625 11.85890625 -5.87890625 9.16015625 C-5.73594116 7.92084351 -5.73594116 7.92084351 -5.59008789 6.65649414 C-4.79542723 0.12270796 -4.79542723 0.12270796 0 0 Z " fill="#F9FFF5" transform="translate(809.81640625,493.90234375)"/>
<path d="M0 0 C6.93 0 13.86 0 21 0 C20.690625 2.619375 20.38125 5.23875 20.0625 7.9375 C19.96718994 8.7637085 19.87187988 9.58991699 19.77368164 10.44116211 C19.11111111 15.88888889 19.11111111 15.88888889 18 17 C15.15664952 17.09986975 12.34302837 17.13877881 9.5 17.125 C8.70207031 17.12886719 7.90414062 17.13273438 7.08203125 17.13671875 C1.12660767 17.12660767 1.12660767 17.12660767 0 16 C-0.07325436 13.3013095 -0.09222351 10.63497444 -0.0625 7.9375 C-0.041875 5.318125 -0.02125 2.69875 0 0 Z " fill="#F9FFF6" transform="translate(805,546)"/>
<path d="M0 0 C5.61 0 11.22 0 17 0 C17 6.27 17 12.54 17 19 C1.25 17.25 1.25 17.25 0 16 C-0.07325436 13.3013095 -0.09222351 10.63497444 -0.0625 7.9375 C-0.041875 5.318125 -0.02125 2.69875 0 0 Z " fill="#060B03" transform="translate(780,521)"/>
<path d="M0 0 C2.289375 0.144375 4.57875 0.28875 6.9375 0.4375 C8.86916016 0.55931641 8.86916016 0.55931641 10.83984375 0.68359375 C14 1 14 1 15 2 C15.07325168 4.86267567 15.09238205 7.700719 15.0625 10.5625 C15.05798828 11.36880859 15.05347656 12.17511719 15.04882812 13.00585938 C15.03700518 15.00393756 15.01906914 17.00197783 15 19 C9.79114138 20.62776832 5.64021306 21.29497337 0 22 C0 14.74 0 7.48 0 0 Z " fill="#030A00" transform="translate(834,518)"/>
<path d="M0 0 C2.47960136 0.14024219 4.95852402 0.2869185 7.4375 0.4375 C8.14455078 0.47681641 8.85160156 0.51613281 9.58007812 0.55664062 C14.88671875 0.88671875 14.88671875 0.88671875 16 2 C16.93119789 7.0698552 17.08997924 11.87118304 17 17 C7.10005886 16.1465568 7.10005886 16.1465568 3 13 C1.1153269 8.78259943 0 4.62267185 0 0 Z " fill="#030900" transform="translate(782,544)"/>
<path d="M0 0 C-0.14024219 2.47960136 -0.2869185 4.95852402 -0.4375 7.4375 C-0.47681641 8.14455078 -0.51613281 8.85160156 -0.55664062 9.58007812 C-0.88671875 14.88671875 -0.88671875 14.88671875 -2 16 C-4.52596259 16.23653523 -7.03107207 16.42173692 -9.5625 16.5625 C-10.62887695 16.62727539 -10.62887695 16.62727539 -11.71679688 16.69335938 C-13.47761912 16.79971777 -15.2387832 16.90038846 -17 17 C-16.71715982 15.22773547 -16.42339502 13.457212 -16.125 11.6875 C-15.96257813 10.70136719 -15.80015625 9.71523438 -15.6328125 8.69921875 C-15 6 -15 6 -13 3 C-10.72265625 2.05078125 -10.72265625 2.05078125 -8.0625 1.3125 C-7.18722656 1.06113281 -6.31195312 0.80976563 -5.41015625 0.55078125 C-3 0 -3 0 0 0 Z " fill="#FAFFF7" transform="translate(799,496)"/>
<path d="M0 0 C7.00787402 1.4015748 7.00787402 1.4015748 10 4 C11.58477157 7.80092623 13 11.84986577 13 16 C8.71 15.67 4.42 15.34 0 15 C0 10.05 0 5.1 0 0 Z " fill="#010300" transform="translate(834,497)"/>
<path d="M0 0 C3 1 3 1 4.375 3.4375 C6.2836851 6.44734958 7.64965669 7.00395199 11 8 C11 8.66 11 9.32 11 10 C10.071875 10.37125 9.14375 10.7425 8.1875 11.125 C4.4739697 13.30942959 3.57312496 15.06718759 2 19 C1.34 19 0.68 19 0 19 C-0.37125 18.071875 -0.7425 17.14375 -1.125 16.1875 C-3.30942959 12.4739697 -5.06718759 11.57312496 -9 10 C-9 9.34 -9 8.68 -9 8 C-7.6078125 7.4121875 -7.6078125 7.4121875 -6.1875 6.8125 C-2.77449882 4.87177384 -1.68801596 3.46981059 0 0 Z " fill="#5BF000" transform="translate(744,561)"/>
<path d="M0 0 C-0.37043333 1.94251626 -0.77236865 3.87904293 -1.1875 5.8125 C-1.40792969 6.89144531 -1.62835937 7.97039063 -1.85546875 9.08203125 C-3 12 -3 12 -5.30078125 13.82421875 C-8 15 -8 15 -13 16 C-13 11.05 -13 6.1 -13 1 C-8.3736134 0.33908763 -4.56428209 -0.11132395 0 0 Z " fill="#010200" transform="translate(847,544)"/>
<path d="M0 0 C1.953125 0.06640625 1.953125 0.06640625 4 1 C5.484375 3.21484375 5.484375 3.21484375 6.75 5.9375 C7.17796875 6.83339844 7.6059375 7.72929687 8.046875 8.65234375 C9 11 9 11 9 13 C4.05 13 -0.9 13 -6 13 C-4.96512036 7.82560178 -3.7751807 3.7751807 0 0 Z " fill="#F5FFEF" transform="translate(813,476)"/>
<path d="M0 0 C0 4.95 0 9.9 0 15 C-10.96212924 12.01032839 -10.96212924 12.01032839 -13 9 C-12.99609375 6.984375 -12.99609375 6.984375 -12 5 C-9.78515625 3.515625 -9.78515625 3.515625 -7.0625 2.25 C-6.16660156 1.82203125 -5.27070312 1.3940625 -4.34765625 0.953125 C-2 0 -2 0 0 0 Z " fill="#060F00" transform="translate(775,521)"/>
<path d="M0 0 C4.95 0 9.9 0 15 0 C12 9.71428571 12 9.71428571 9 13 C7.171875 12.80859375 7.171875 12.80859375 5 12 C3.515625 9.78515625 3.515625 9.78515625 2.25 7.0625 C1.82203125 6.16660156 1.3940625 5.27070312 0.953125 4.34765625 C0 2 0 2 0 0 Z " fill="#F8FFF3" transform="translate(807,568)"/>
<path d="M0 0 C1.77375 0.61875 3.5475 1.2375 5.375 1.875 C6.87160156 2.39707031 6.87160156 2.39707031 8.3984375 2.9296875 C11 4 11 4 13 6 C12.86328125 7.98828125 12.86328125 7.98828125 12 10 C10.29296875 11.23046875 10.29296875 11.23046875 8.1875 12.1875 C7.15689453 12.67283203 7.15689453 12.67283203 6.10546875 13.16796875 C4 14 4 14 0 15 C0 10.05 0 5.1 0 0 Z " fill="#030900" transform="translate(854,521)"/>
<path d="M0 0 C4.48278267 1.44207163 7.59617259 3.91186317 11 7.0625 C11.52819336 7.5469458 12.05638672 8.0313916 12.60058594 8.53051758 C16.78285392 12.50419202 19.73273806 16.66138903 22 22 C20.66543893 21.33579449 19.33242877 20.66847274 18 20 C17.21882812 19.6184375 16.43765625 19.236875 15.6328125 18.84375 C8.69200322 15.12468708 5.42579544 11.01362175 2 4 C1.6184375 3.23945313 1.236875 2.47890625 0.84375 1.6953125 C0.5653125 1.13585937 0.286875 0.57640625 0 0 Z " fill="#071300" transform="translate(839,482)"/>
<path d="M0 0 C0 5.83039688 -5.34829823 10.34548443 -9.29296875 14.296875 C-13.05498618 17.75011713 -16.12931334 20.2995322 -21 22 C-20.2302804 20.6035522 -19.45916631 19.20787301 -18.6875 17.8125 C-18.04361328 16.64654297 -18.04361328 16.64654297 -17.38671875 15.45703125 C-16.92910156 14.64621094 -16.47148438 13.83539062 -16 13 C-15.57589844 12.15308594 -15.15179687 11.30617188 -14.71484375 10.43359375 C-12.52211684 7.32181957 -10.20351039 6.06263457 -6.875 4.25 C-3.22083112 2.43051431 -3.22083112 2.43051431 0 0 Z " fill="#071200" transform="translate(860,553)"/>
<path d="M0 0 C0.59167969 0.40992188 1.18335938 0.81984375 1.79296875 1.2421875 C2.58316406 1.78101563 3.37335937 2.31984375 4.1875 2.875 C4.96480469 3.40867187 5.74210938 3.94234375 6.54296875 4.4921875 C8.92507642 6.0885895 8.92507642 6.0885895 11.56640625 6.8203125 C14.99546387 8.48255231 15.95123204 10.68899349 17.75 14 C18.34296875 15.0725 18.9359375 16.145 19.546875 17.25 C20.37942556 18.82557955 21.20305692 20.40611384 22 22 C12.73304436 18.85055422 5.16860538 10.09519981 0 2 C0 1.34 0 0.68 0 0 Z " fill="#061000" transform="translate(768,553)"/>
<path d="M0 0 C0.86625 1.11375 0.86625 1.11375 1.75 2.25 C3.72253526 4.66087643 5.76044282 6.84042701 8 9 C7.21625 9.226875 6.4325 9.45375 5.625 9.6875 C2.78125 10.78125 2.78125 10.78125 1.6875 13.625 C1.3471875 14.800625 1.3471875 14.800625 1 16 C-1.66666667 13.33333333 -4.33333333 10.66666667 -7 8 C-6.21625 7.4225 -5.4325 6.845 -4.625 6.25 C-2.19952756 4.17102363 -1.14305583 2.90959667 0 0 Z " fill="#050D00" transform="translate(874,474)"/>
<path d="M0 0 C3.89797041 0.14785405 7.36872406 0.52659019 11 2 C13.51526667 5.55167775 15 9.61635952 15 14 C8.93672541 12.03835234 4.75324977 8.64811974 1.625 3.1875 C1.08875 2.135625 0.5525 1.08375 0 0 Z " fill="#071300" transform="translate(790,565)"/>
<path d="M0 0 C-3.33741704 5.80420355 -7.90942084 9.71434147 -13 14 C-14.2634508 9.66816869 -14.00266458 7.15367469 -12 3 C-3.81564679 -1.90782339 -3.81564679 -1.90782339 0 0 Z " fill="#071400" transform="translate(865,539)"/>
<path d="M0 0 C0.66 0.33 1.32 0.66 2 1 C0.96744436 4.83520668 -0.16914377 8.46639409 -2 12 C-6.15998998 14.07999499 -8.64248222 14.26138673 -13 13 C-9.2430054 7.45396035 -5.65370024 3.61836815 0 0 Z " fill="#050F00" transform="translate(803,478)"/>
<path d="M0 0 C1.30002689 3.90008067 0.73470891 6.07370344 -0.56640625 9.90234375 C-3.03116319 13.50881371 -6.59605311 13.84590937 -10.69921875 14.66015625 C-11.83810547 14.82837891 -11.83810547 14.82837891 -13 15 C-11.67064278 11.0532555 -10.05426964 8.69284433 -7.0625 5.8125 C-6.02802734 4.80123047 -6.02802734 4.80123047 -4.97265625 3.76953125 C-3 2 -3 2 0 0 Z " fill="#F4FFEE" transform="translate(777,504)"/>
<path d="M0 0 C5.94309431 3.47888448 11.76991197 8.3097359 14 15 C10.11254085 14.42579126 6.56417028 13.68746115 3 12 C0.50420848 8.25631271 0 4.42880251 0 0 Z " fill="#050F00" transform="translate(851,504)"/>
<path d="M0 0 C4 1.33333333 8 2.66666667 12 4 C13.54613006 8.09724467 14.29227216 10.81857651 13 15 C11.39179588 13.58791833 9.78859292 12.17013964 8.1875 10.75 C7.29417969 9.96109375 6.40085937 9.1721875 5.48046875 8.359375 C3.34719585 6.33024614 1.58859881 4.46998087 0 2 C0 1.34 0 0.68 0 0 Z " fill="#050D00" transform="translate(764,538)"/>
<path d="M0 0 C0.375 3.1875 0.375 3.1875 0 7 C-2.42583207 10.04191641 -5.31251021 11.77083674 -9 13 C-8.63033201 11.20275237 -8.2282752 9.41214422 -7.8125 7.625 C-7.59207031 6.62726562 -7.37164063 5.62953125 -7.14453125 4.6015625 C-6 2 -6 2 -3.44921875 0.6484375 C-1 0 -1 0 0 0 Z " fill="#F5FFEF" transform="translate(833,566)"/>
<path d="M0 0 C3.91441027 1.30480342 6.53969951 2.62847711 9 6 C9.25 9.75 9.25 9.75 9 13 C6.64453125 12.80859375 6.64453125 12.80859375 4 12 C2.63671875 9.78515625 2.63671875 9.78515625 1.6875 7.0625 C1.36136719 6.16660156 1.03523437 5.27070313 0.69921875 4.34765625 C0 2 0 2 0 0 Z " fill="#F6FFF0" transform="translate(824,478)"/>
<path d="M0 0 C1.216875 0.12375 2.43375 0.2475 3.6875 0.375 C2.43427706 4.13466883 1.2480772 4.50649973 -2.125 6.4375 C-2.99769531 6.94410156 -3.87039063 7.45070313 -4.76953125 7.97265625 C-6.92802742 9.16297902 -9.09694398 10.29562656 -11.3125 11.375 C-9.41609707 5.51339094 -6.72625979 -0.01190488 0 0 Z " fill="#EBF6E4" transform="translate(779.3125,492.625)"/>
<path d="M0 0 C0.99 0 1.98 0 3 0 C3 6.27 3 12.54 3 19 C2.01 19 1.02 19 0 19 C0 12.73 0 6.46 0 0 Z " fill="#132C04" transform="translate(802,521)"/>
<path d="M0 0 C0.66 0.33 1.32 0.66 2 1 C-0.09309861 4.56272105 -2.21561499 7.93610144 -5 11 C-8.9375 11.625 -8.9375 11.625 -12 11 C-8.42270128 6.33867137 -4.89132699 3.26088466 0 0 Z " fill="#061000" transform="translate(788,482)"/>
<path d="M0 0 C0 1.32 0 2.64 0 4 C-5.28 4 -10.56 4 -16 4 C-16 3.34 -16 2.68 -16 2 C-14.08404518 1.66259915 -12.16720278 1.33023588 -10.25 1 C-9.18265625 0.814375 -8.1153125 0.62875 -7.015625 0.4375 C-4 0 -4 0 0 0 Z " fill="#F3FFEB" transform="translate(797,517)"/>
<path d="M0 0 C0.66 0 1.32 0 2 0 C2 5.28 2 10.56 2 16 C1.01 16 0.02 16 -1 16 C-1.11138159 10.54230189 -0.91657981 5.38490641 0 0 Z " fill="#F1FFE9" transform="translate(831,545)"/>
<path d="M0 0 C0.99 0 1.98 0 3 0 C3 4.95 3 9.9 3 15 C2.34 15 1.68 15 1 15 C-0.32286246 10.03926578 -0.08893197 5.08888488 0 0 Z " fill="#F4FFEE" transform="translate(830,496)"/>
<path d="M0 0 C1.98 0.66 3.96 1.32 6 2 C5.67 3.98 5.34 5.96 5 8 C3.02 7.34 1.04 6.68 -1 6 C-0.67 4.02 -0.34 2.04 0 0 Z " fill="#0F2700" transform="translate(872,571)"/>
<path d="M0 0 C0.66 0.33 1.32 0.66 2 1 C2 1.66 2 2.32 2 3 C2.99 3.33 3.98 3.66 5 4 C3.35 5.32 1.7 6.64 0 8 C-0.33 7.01 -0.66 6.02 -1 5 C-1.66 4.67 -2.32 4.34 -3 4 C-2.01 2.68 -1.02 1.36 0 0 Z " fill="#091800" transform="translate(750,442)"/>
<path d="M0 0 C3.5 -0.375 3.5 -0.375 7 0 C7.66 0.99 8.32 1.98 9 3 C5.37 3 1.74 3 -2 3 C-1.34 2.01 -0.68 1.02 0 0 Z " fill="#F9FFF6" transform="translate(811,467)"/>
<path d="M0 0 C2.0625 0.4375 2.0625 0.4375 4 1 C2.35 2.65 0.7 4.3 -1 6 C-1.042721 4.33388095 -1.04063832 2.66617115 -1 1 C-0.67 0.67 -0.34 0.34 0 0 Z " fill="#081500" transform="translate(835,565)"/>
<path d="M0 0 C1.65 1.65 3.3 3.3 5 5 C3.0625 5.5625 3.0625 5.5625 1 6 C0 5 0 5 -0.0625 2.4375 C-0.041875 1.633125 -0.02125 0.82875 0 0 Z " fill="#081600" transform="translate(834,486)"/>
</svg>
